<?xml version="1.0" encoding="UTF-8" standalone="no"?>
<!-- Created with Inkscape (http://www.inkscape.org/) -->
<svg
   xmlns:svg="http://www.w3.org/2000/svg"
   xmlns="http://www.w3.org/2000/svg"
   xmlns:xlink="http://www.w3.org/1999/xlink"
   version="1.0"
   width="297mm"
   height="210mm"
   id="svg548">
  <defs
     id="defs550">
    <linearGradient
       id="linearGradient1240">
      <stop
         id="stop1241"
         style="stop-color:#f2b700;stop-opacity:1"
         offset="0" />
      <stop
         id="stop1242"
         style="stop-color:#b76f00;stop-opacity:0"
         offset="1" />
    </linearGradient>
    <linearGradient
       id="linearGradient1234">
      <stop
         id="stop1235"
         style="stop-color:#754700;stop-opacity:1"
         offset="0" />
      <stop
         id="stop1236"
         style="stop-color:#b77200;stop-opacity:0"
         offset="1" />
    </linearGradient>
    <linearGradient
       id="linearGradient1227">
      <stop
         id="stop1228"
         style="stop-color:#754d00;stop-opacity:1"
         offset="0" />
      <stop
         id="stop1229"
         style="stop-color:#b87500;stop-opacity:0"
         offset="1" />
    </linearGradient>
    <linearGradient
       id="linearGradient3793">
      <stop
         id="stop3794"
         style="stop-color:#f2b700;stop-opacity:1"
         offset="0" />
      <stop
         id="stop3795"
         style="stop-color:#f2b700;stop-opacity:0.0196078"
         offset="1" />
    </linearGradient>
    <linearGradient
       id="linearGradient2444">
      <stop
         id="stop2445"
         style="stop-color:#cd0000;stop-opacity:1"
         offset="0" />
      <stop
         id="stop2446"
         style="stop-color:#9a0000;stop-opacity:1"
         offset="1" />
    </linearGradient>
    <linearGradient
       id="linearGradient1040">
      <stop
         id="stop1041"
         style="stop-color:#f2b700;stop-opacity:0"
         offset="0" />
      <stop
         id="stop1042"
         style="stop-color:#f2b700;stop-opacity:1"
         offset="1" />
    </linearGradient>
    <linearGradient
       id="linearGradient958">
      <stop
         id="stop959"
         style="stop-color:#6697dd;stop-opacity:0.74901998"
         offset="0" />
      <stop
         id="stop960"
         style="stop-color:#ffffff;stop-opacity:1"
         offset="1" />
    </linearGradient>
    <linearGradient
       id="linearGradient2593">
      <stop
         id="stop2594"
         style="stop-color:#ffffff;stop-opacity:0.615686"
         offset="0" />
      <stop
         id="stop2595"
         style="stop-color:#ffffff;stop-opacity:0"
         offset="1" />
    </linearGradient>
    <linearGradient
       id="linearGradient733">
      <stop
         id="stop734"
         style="stop-color:#000000;stop-opacity:0.65490198"
         offset="0" />
      <stop
         id="stop735"
         style="stop-color:#828da5;stop-opacity:0"
         offset="1" />
    </linearGradient>
    <linearGradient
       id="linearGradient722">
      <stop
         id="stop723"
         style="stop-color:#5c6582;stop-opacity:0.96862698"
         offset="0" />
      <stop
         id="stop724"
         style="stop-color:#ffffff;stop-opacity:0.64705902"
         offset="1" />
    </linearGradient>
    <linearGradient
       id="linearGradient1289">
      <stop
         id="stop1290"
         style="stop-color:#5c6582;stop-opacity:1"
         offset="0" />
      <stop
         id="stop1291"
         style="stop-color:#ffffff;stop-opacity:1"
         offset="1" />
    </linearGradient>
    <linearGradient
       id="linearGradient1285">
      <stop
         id="stop1286"
         style="stop-color:#ffffff;stop-opacity:0.55294102"
         offset="0" />
      <stop
         id="stop1287"
         style="stop-color:#828da5;stop-opacity:0"
         offset="1" />
    </linearGradient>
    <linearGradient
       x1="4647.4297"
       y1="24.983076"
       x2="4703.7705"
       y2="24.983076"
       id="linearGradient1288"
       xlink:href="#linearGradient1289"
       gradientUnits="userSpaceOnUse"
       gradientTransform="scale(0.1165177,8.5823851)" />
    <linearGradient
       x1="412.59329"
       y1="110.13049"
       x2="218.25531"
       y2="295.12451"
       id="linearGradient719"
       xlink:href="#linearGradient1285"
       gradientUnits="userSpaceOnUse"
       gradientTransform="scale(1.6288208,0.6139411)"
       spreadMethod="pad" />
    <linearGradient
       x1="635.23877"
       y1="216.05605"
       x2="756.3537"
       y2="88.21772"
       id="linearGradient721"
       xlink:href="#linearGradient722"
       gradientUnits="userSpaceOnUse"
       gradientTransform="scale(1.1612801,0.8611187)"
       spreadMethod="pad" />
    <linearGradient
       x1="165.57237"
       y1="196.35788"
       x2="347.77982"
       y2="46.466862"
       id="linearGradient729"
       xlink:href="#linearGradient722"
       gradientUnits="userSpaceOnUse"
       gradientTransform="scale(1.4924928,0.67002)"
       spreadMethod="pad" />
    <linearGradient
       x1="368.22394"
       y1="201.49704"
       x2="164.31035"
       y2="455.74054"
       id="linearGradient730"
       xlink:href="#linearGradient733"
       gradientUnits="userSpaceOnUse"
       gradientTransform="scale(1.2987668,0.7699612)"
       spreadMethod="pad" />
    <linearGradient
       x1="559.64417"
       y1="188.73848"
       x2="395.66425"
       y2="476.66306"
       id="linearGradient737"
       xlink:href="#linearGradient733"
       gradientUnits="userSpaceOnUse"
       gradientTransform="scale(1.086788,0.9201427)"
       spreadMethod="pad" />
    <linearGradient
       x1="661.51379"
       y1="165.0481"
       x2="715.83728"
       y2="472.85965"
       id="linearGradient739"
       xlink:href="#linearGradient733"
       gradientUnits="userSpaceOnUse"
       gradientTransform="scale(1.0266421,0.9740493)"
       spreadMethod="pad" />
    <linearGradient
       x1="754.76129"
       y1="250.59402"
       x2="675.53088"
       y2="334.18515"
       id="linearGradient741"
       xlink:href="#linearGradient733"
       gradientUnits="userSpaceOnUse"
       gradientTransform="scale(1.10725,0.9031384)"
       spreadMethod="pad" />
    <linearGradient
       x1="256.79456"
       y1="181.81691"
       x2="138.93359"
       y2="325.00595"
       id="linearGradient743"
       xlink:href="#linearGradient733"
       gradientUnits="userSpaceOnUse"
       gradientTransform="scale(1.1945389,0.8371431)"
       spreadMethod="pad" />
    <linearGradient
       x1="2130.3333"
       y1="171.80583"
       x2="2159.6174"
       y2="171.80583"
       id="linearGradient745"
       xlink:href="#linearGradient1289"
       gradientUnits="userSpaceOnUse"
       gradientTransform="scale(0.3998074,2.5012041)"
       spreadMethod="pad" />
    <linearGradient
       x1="153.74493"
       y1="626.58667"
       x2="102.17109"
       y2="615.24231"
       id="linearGradient747"
       xlink:href="#linearGradient1040"
       gradientUnits="userSpaceOnUse"
       gradientTransform="matrix(1.0214796,0,0,0.4925569,128.13845,41.576162)"
       spreadMethod="pad" />
    <radialGradient
       cx="0.5"
       cy="0.5"
       r="0.5"
       fx="0.5"
       fy="0.5"
       id="radialGradient2592"
       xlink:href="#linearGradient2593"
       gradientUnits="objectBoundingBox"
       spreadMethod="pad" />
    <linearGradient
       x1="409.84747"
       y1="192.14073"
       x2="531.97998"
       y2="192.14073"
       id="linearGradient1038"
       xlink:href="#linearGradient2444"
       gradientUnits="userSpaceOnUse"
       gradientTransform="scale(0.7526581,1.3286246)" />
    <linearGradient
       x1="404.13766"
       y1="1119.7173"
       x2="411.75613"
       y2="1139.4344"
       id="linearGradient1039"
       xlink:href="#linearGradient2444"
       gradientUnits="userSpaceOnUse"
       gradientTransform="scale(1.434862,0.6969311)"
       spreadMethod="pad" />
    <radialGradient
       cx="510.95773"
       cy="96.162033"
       r="115.51202"
       fx="510.95773"
       fy="96.162033"
       id="radialGradient3455"
       xlink:href="#linearGradient2444"
       gradientUnits="userSpaceOnUse"
       gradientTransform="scale(0.886416,1.1281385)"
       spreadMethod="pad" />
    <radialGradient
       cx="233.46953"
       cy="690.92566"
       r="35.804722"
       fx="233.46953"
       fy="690.92566"
       id="radialGradient3456"
       xlink:href="#linearGradient2444"
       gradientUnits="userSpaceOnUse"
       gradientTransform="scale(1.4569867,0.6863481)" />
    <radialGradient
       cx="159.59312"
       cy="782.8905"
       r="77.514633"
       fx="159.59312"
       fy="782.8905"
       id="radialGradient3457"
       xlink:href="#linearGradient2444"
       gradientUnits="userSpaceOnUse"
       gradientTransform="scale(1.1163256,0.895796)"
       spreadMethod="pad" />
    <radialGradient
       cx="216.89104"
       cy="620.0257"
       r="97.033607"
       fx="216.89104"
       fy="620.0257"
       id="radialGradient3458"
       xlink:href="#linearGradient2444"
       gradientUnits="userSpaceOnUse"
       gradientTransform="scale(1.0568902,0.9461721)"
       spreadMethod="pad" />
    <radialGradient
       cx="325.52295"
       cy="191.37273"
       r="82.353271"
       fx="325.52295"
       fy="191.37273"
       id="radialGradient3459"
       xlink:href="#linearGradient2444"
       gradientUnits="userSpaceOnUse"
       gradientTransform="scale(0.701073,1.4263851)" />
    <radialGradient
       cx="187.44231"
       cy="630.75208"
       r="41.136539"
       fx="187.44231"
       fy="630.75208"
       id="radialGradient3460"
       xlink:href="#linearGradient2444"
       gradientUnits="userSpaceOnUse"
       gradientTransform="scale(1.6915738,0.5911655)" />
    <radialGradient
       cx="316.76053"
       cy="118.42437"
       r="59.172634"
       fx="316.76053"
       fy="118.42437"
       id="radialGradient3461"
       xlink:href="#linearGradient2444"
       gradientUnits="userSpaceOnUse"
       gradientTransform="scale(0.8017489,1.2472733)" />
    <radialGradient
       cx="215.07083"
       cy="376.32388"
       r="19.177797"
       fx="215.07083"
       fy="376.32388"
       id="radialGradient3462"
       xlink:href="#linearGradient2444"
       gradientUnits="userSpaceOnUse"
       gradientTransform="scale(1.1090336,0.901686)" />
    <radialGradient
       cx="182.55511"
       cy="874.59009"
       r="17.253897"
       fx="182.55511"
       fy="874.59009"
       id="radialGradient3463"
       xlink:href="#linearGradient2444"
       gradientUnits="userSpaceOnUse"
       gradientTransform="scale(1.1805785,0.8470423)" />
    <radialGradient
       cx="187.5482"
       cy="850.7345"
       r="17.336475"
       fx="187.5482"
       fy="850.7345"
       id="radialGradient3464"
       xlink:href="#linearGradient2444"
       gradientUnits="userSpaceOnUse"
       gradientTransform="scale(1.1491139,0.8702358)" />
    <radialGradient
       cx="194.31244"
       cy="803.13818"
       r="21.030825"
       fx="194.31244"
       fy="803.13818"
       id="radialGradient3465"
       xlink:href="#linearGradient2444"
       gradientUnits="userSpaceOnUse"
       gradientTransform="scale(1.0855208,0.9212168)"
       spreadMethod="pad" />
    <linearGradient
       x1="789.3822"
       y1="662.6864"
       x2="810.16888"
       y2="657.76611"
       id="linearGradient3619"
       xlink:href="#linearGradient2444"
       gradientUnits="userSpaceOnUse"
       gradientTransform="scale(0.8696273,1.1499179)"
       spreadMethod="pad" />
    <linearGradient
       x1="292.6311"
       y1="723.93445"
       x2="359.77271"
       y2="820.89673"
       id="linearGradient3791"
       xlink:href="#linearGradient3793"
       gradientUnits="userSpaceOnUse"
       gradientTransform="matrix(0.7298497,0,0,0.6893705,126.03227,42.355318)"
       spreadMethod="pad" />
    <linearGradient
       x1="-22.196756"
       y1="678.82977"
       x2="49.110935"
       y2="803.3114"
       id="linearGradient3792"
       xlink:href="#linearGradient3793"
       gradientUnits="userSpaceOnUse"
       gradientTransform="scale(0.9801489,1.0202532)"
       spreadMethod="pad" />
    <linearGradient
       x1="4.0848715e-08"
       y1="-4.8128618e-07"
       x2="1.0000001"
       y2="-4.8128618e-07"
       id="linearGradient3796"
       xlink:href="#linearGradient1227" />
    <linearGradient
       x1="0.36237654"
       y1="0.63281661"
       x2="0.50917304"
       y2="0.50000012"
       id="linearGradient1232"
       xlink:href="#linearGradient1227" />
    <radialGradient
       cx="232.85851"
       cy="503.16168"
       r="20.266727"
       fx="232.85851"
       fy="503.16168"
       id="radialGradient1233"
       xlink:href="#linearGradient1234"
       gradientUnits="userSpaceOnUse"
       gradientTransform="matrix(1.8546046,0,0,0.7733137,-171.26986,-29.895195)" />
    <radialGradient
       cx="240.26971"
       cy="483.1391"
       r="12.839093"
       fx="240.26971"
       fy="483.1391"
       id="radialGradient1237"
       xlink:href="#linearGradient1240"
       gradientUnits="userSpaceOnUse"
       gradientTransform="matrix(1.7296294,0,0,0.8291899,-171.26986,-29.895195)" />
    <radialGradient
       cx="180.22057"
       cy="323.23441"
       r="10.943056"
       fx="180.22057"
       fy="323.23441"
       id="radialGradient1246"
       xlink:href="#linearGradient733"
       gradientUnits="userSpaceOnUse"
       gradientTransform="scale(0.8216769,1.2170234)" />
    <radialGradient
       id="radialGradient1247"
       xlink:href="#linearGradient733" />
    <radialGradient
       cx="214.01645"
       cy="405.20822"
       r="8.4311676"
       fx="214.01645"
       fy="405.20822"
       id="radialGradient1248"
       xlink:href="#linearGradient733"
       gradientUnits="userSpaceOnUse"
       gradientTransform="scale(1.0403963,0.9611722)" />
    <linearGradient
       x1="-22.196756"
       y1="678.82977"
       x2="49.110935"
       y2="803.3114"
       id="linearGradient2634"
       xlink:href="#linearGradient3793"
       gradientUnits="userSpaceOnUse"
       gradientTransform="scale(0.9801489,1.0202532)"
       spreadMethod="pad" />
    <radialGradient
       cx="214.01645"
       cy="405.20822"
       r="8.4311676"
       fx="214.01645"
       fy="405.20822"
       id="radialGradient2636"
       xlink:href="#linearGradient733"
       gradientUnits="userSpaceOnUse"
       gradientTransform="scale(1.0403963,0.9611722)" />
    <radialGradient
       cx="180.22057"
       cy="323.23441"
       r="10.943056"
       fx="180.22057"
       fy="323.23441"
       id="radialGradient2638"
       xlink:href="#linearGradient733"
       gradientUnits="userSpaceOnUse"
       gradientTransform="scale(0.8216769,1.2170234)" />
  </defs>
  <path
     d="M 495.04613,391.49084 A 131.54527,178.24776 0 1 1 231.95558,391.49084 A 131.54527,178.24776 0 1 1 495.04613,391.49084 z"
     transform="matrix(2.87574,-9.473688e-4,2.210225e-3,1.441048,-555.4672,-169.9866)"
     id="path2591"
     style="fill:url(#radialGradient2592);fill-opacity:1;fill-rule:evenodd;stroke:none;stroke-width:1pt;stroke-linecap:butt;stroke-linejoin:miter;stroke-opacity:1" />
  <g
     transform="matrix(1.1975772,0,0,1.1975772,-171.26986,-29.895195)"
     id="g3697">
    <path
       d="M 852.348,465.643 C 856.27,418.581 858.884,418.581 862.806,465.643 L 862.806,502.247 L 852.348,502.342 L 852.348,465.643 z"
       transform="matrix(0.743228,0.105274,-0.105274,0.743229,-45.20582,-375.8386)"
       id="path744"
       style="fill:url(#linearGradient745);fill-opacity:1;fill-rule:evenodd;stroke:#000000;stroke-width:1pt;stroke-linecap:butt;stroke-linejoin:miter;stroke-opacity:1" />
    <path
       d="M 834.967,335.612 C 774.502,326.379 727.885,339.303 670.189,368.844 C 659.572,302.84 644.803,240.992 612.031,173.604 C 708.036,182.374 777.733,213.298 834.967,335.612 z"
       transform="matrix(0.861433,0,0,0.861433,73.02119,4.575592)"
       id="path1265"
       style="fill:#5c6384;fill-opacity:1;fill-rule:evenodd;stroke:#000000;stroke-width:1pt;stroke-linecap:butt;stroke-linejoin:miter;stroke-opacity:1" />
    <path
       d="M 834.967,335.612 C 778.072,331.77 729.67,344.694 670.189,370.641 C 659.572,304.637 643.018,224.82 610.246,157.432 C 720.53,182.374 777.733,213.298 834.967,335.612 z"
       transform="matrix(0.732426,0,0,0.727517,166.3573,40.89677)"
       id="path738"
       style="fill:url(#linearGradient739);fill-opacity:1;fill-rule:evenodd;stroke:none;stroke-width:1pt;stroke-linecap:butt;stroke-linejoin:miter;stroke-opacity:1" />
    <path
       d="M 410.4,326.961 C 504.097,318.191 580.646,342.997 668.804,370.229 C 660.957,300.072 642.033,235.453 612.032,172.219 C 573.722,161.141 535.413,154.218 492.949,151.448 C 455.101,191.604 426.093,252.188 410.4,326.961 z"
       transform="matrix(0.861433,0,0,0.861433,73.02119,4.575592)"
       id="path1271"
       style="fill:#5c6382;fill-opacity:1;fill-rule:evenodd;stroke:#000000;stroke-width:1pt;stroke-linecap:butt;stroke-linejoin:miter;stroke-opacity:1" />
    <path
       d="M 410.4,326.961 C 504.097,318.191 580.646,342.997 668.804,370.229 C 660.957,300.072 642.033,235.453 612.032,172.219 C 573.722,161.141 535.413,154.218 492.949,151.448 C 455.101,191.604 426.093,252.188 410.4,326.961 z"
       transform="matrix(0.740015,0,0,0.777779,139.8457,18.55219)"
       id="path736"
       style="fill:url(#linearGradient737);fill-opacity:1;fill-rule:evenodd;stroke:none;stroke-width:1pt;stroke-linecap:butt;stroke-linejoin:miter;stroke-opacity:1" />
    <path
       d="M 834.967,335.612 C 846.045,312.533 866.814,296.379 886.2,280.225 C 829.427,234.992 772.656,206.374 695.113,191.605 C 779.579,225.298 796.195,264.532 834.967,335.612 z"
       transform="matrix(0.861433,0,0,0.861433,73.02119,4.575592)"
       id="path1264"
       style="fill:#555c79;fill-opacity:1;fill-rule:evenodd;stroke:#000000;stroke-width:1pt;stroke-linecap:butt;stroke-linejoin:miter;stroke-opacity:1" />
    <path
       d="M 199.395,269.147 C 272.322,274.224 359.76,283.113 410.532,326.961 C 431.764,248.957 449.562,200.374 492.948,150.064 C 433.869,146.372 385.866,145.448 329.556,147.294 C 282.015,183.758 251.09,210.528 199.395,269.147 z"
       transform="matrix(0.861433,0,0,0.861433,73.02119,4.575592)"
       id="path1270"
       style="fill:#565c79;fill-opacity:1;fill-rule:evenodd;stroke:#000000;stroke-width:1pt;stroke-linecap:butt;stroke-linejoin:miter;stroke-opacity:1" />
    <path
       d="M 160.624,190.22 C 223.254,159.21 284.526,149.111 333.709,147.295 C 367.248,110.331 388.635,91.9068 427.868,71.1365 C 280.957,90.5824 259.717,115.362 160.624,190.22 z"
       transform="matrix(0.861433,0,0,0.861433,73.02119,4.575592)"
       id="path1261"
       style="fill:#5c6582;fill-opacity:1;fill-rule:evenodd;stroke:#000000;stroke-width:1pt;stroke-linecap:butt;stroke-linejoin:miter;stroke-opacity:1" />
    <path
       d="M 696.498,191.605 C 751.885,202.682 836.351,235.914 884.815,280.225 C 840.505,187.45 710.345,112.677 645.264,97.4456 C 667.419,129.293 684.035,152.833 696.498,191.605 z"
       transform="matrix(0.861433,0,0,0.861433,73.02119,4.575592)"
       id="path1263"
       style="fill:#505771;fill-opacity:1;fill-rule:evenodd;stroke:#000000;stroke-width:1pt;stroke-linecap:butt;stroke-linejoin:miter;stroke-opacity:1" />
    <rect
       width="5.3196168"
       height="482.29517"
       x="542.13049"
       y="-26.733192"
       transform="matrix(0.98524,0.171178,-0.146077,0.989273,0,0)"
       id="rect1267"
       style="font-size:12px;fill:url(#linearGradient1288);fill-rule:evenodd;stroke:#000000;stroke-width:1.24511003" />
    <path
       d="M 162.008,188.835 C 183.701,208.682 197.087,221.606 198.01,269.147 C 246.474,215.144 285.245,180.527 329.555,147.294 C 264.937,152.372 233.55,158.833 162.008,188.835 z"
       transform="matrix(0.861433,0,0,0.861433,73.02119,4.575592)"
       id="path1269"
       style="fill:#3d4257;fill-opacity:1;fill-rule:evenodd;stroke:#000000;stroke-width:1pt;stroke-linecap:butt;stroke-linejoin:miter;stroke-opacity:1" />
    <path
       d="M 336.479,147.294 C 490.687,144.716 540.027,151.448 696.497,192.989 C 685.42,150.525 648.111,93.5257 621.725,73.9059 C 557.183,73.2169 533.718,76.9849 472.178,57.2897 C 423.026,65.5622 361.45,109.175 336.479,147.294 z"
       transform="matrix(0.861433,0,0,0.861433,73.02119,4.575592)"
       id="path1262"
       style="fill:#5c6580;fill-opacity:1;fill-rule:evenodd;stroke:#000000;stroke-width:1pt;stroke-linecap:butt;stroke-linejoin:miter;stroke-opacity:1" />
    <path
       d="M 336.479,147.294 C 490.687,144.716 540.027,151.448 696.497,192.989 C 685.42,150.525 648.111,93.5257 621.725,73.9059 C 557.183,73.2169 533.718,76.9849 472.178,57.2897 C 423.026,65.5622 361.45,109.175 336.479,147.294 z"
       transform="matrix(0.755081,0,0,0.695458,130.2031,21.96718)"
       id="path718"
       style="fill:url(#linearGradient719);fill-opacity:1;fill-rule:evenodd;stroke:none;stroke-width:1pt;stroke-linecap:butt;stroke-linejoin:miter;stroke-opacity:1" />
    <path
       d="M 693.372,185.352 C 748.759,196.429 828.535,224.972 876.999,269.283 C 807.705,184.436 711.545,121.08 645.264,97.4456 C 667.419,129.293 680.909,146.58 693.372,185.352 z"
       transform="matrix(0.720403,0,0,0.720403,180.9153,31.20714)"
       id="path720"
       style="fill:url(#linearGradient721);fill-opacity:1;fill-rule:evenodd;stroke:none;stroke-width:1pt;stroke-linecap:butt;stroke-linejoin:miter;stroke-opacity:1" />
    <path
       d="M 182.281,175.562 C 244.911,144.552 288.287,145.172 337.47,143.356 C 371.009,106.392 381.674,89.2067 420.907,68.4364 C 329.837,87.74 265.223,109.454 182.281,175.562 z"
       transform="matrix(0.695114,0,0,0.663832,121.9598,30.39774)"
       id="path728"
       style="fill:url(#linearGradient729);fill-opacity:1;fill-rule:evenodd;stroke:none;stroke-width:1pt;stroke-linecap:butt;stroke-linejoin:miter;stroke-opacity:1" />
    <path
       d="M 192.382,274.407 C 267.062,277.731 356.254,283.113 407.026,326.961 C 428.258,248.957 453.068,202.127 496.454,151.817 C 437.375,148.125 385.866,145.448 329.556,147.294 C 282.015,183.758 244.077,215.788 192.382,274.407 z"
       transform="matrix(0.745647,0,0,0.74561,119.6395,21.52887)"
       id="path732"
       style="fill:url(#linearGradient730);fill-opacity:1;fill-rule:evenodd;stroke:none;stroke-width:1pt;stroke-linecap:butt;stroke-linejoin:miter;stroke-opacity:1" />
    <path
       d="M 846.676,339.563 C 857.754,316.484 880.475,296.379 901.812,284.176 C 845.039,238.943 788.268,198.471 710.726,183.702 C 791.288,221.347 807.904,268.483 846.676,339.563 z"
       transform="matrix(0.669877,0,0,0.661719,224.4762,57.22192)"
       id="path740"
       style="fill:url(#linearGradient741);fill-opacity:1;fill-rule:evenodd;stroke:none;stroke-width:1pt;stroke-linecap:butt;stroke-linejoin:miter;stroke-opacity:1" />
    <path
       d="M 150.098,192.747 C 171.791,212.594 195.102,225.518 196.025,273.059 C 244.489,219.056 285.245,180.527 329.555,147.294 C 264.937,150.416 223.625,164.701 150.098,192.747 z"
       transform="matrix(0.658569,0,0,0.668323,121.5742,35.63409)"
       id="path742"
       style="fill:url(#linearGradient743);fill-opacity:1;fill-rule:evenodd;stroke:none;stroke-width:1pt;stroke-linecap:butt;stroke-linejoin:miter;stroke-opacity:1" />
    <path
       d="M 499.272,328.782 C 500.375,330.162 502.583,330.576 504.308,330.093"
       id="path748"
       style="fill:none;fill-opacity:1;fill-rule:evenodd;stroke:#000000;stroke-width:1pt;stroke-linecap:butt;stroke-linejoin:miter;stroke-opacity:1" />
    <path
       d="M 608.79,71.312 C 634.156,95.2369 653.469,127.809 669.323,166.435"
       transform="translate(-1.729507,-0.864777)"
       id="path749"
       style="fill:none;fill-opacity:1;fill-rule:evenodd;stroke:#ffffff;stroke-width:1pt;stroke-linecap:butt;stroke-linejoin:miter;stroke-opacity:0.69655199" />
    <path
       d="M 488.589,33.2626 C 564.111,55.458 648.28,133.862 667.593,162.111"
       transform="translate(149.6033,61.39787)"
       id="path750"
       style="fill:none;fill-opacity:1;fill-rule:evenodd;stroke:#ffffff;stroke-width:1pt;stroke-linecap:butt;stroke-linejoin:miter;stroke-opacity:0.517241" />
    <path
       d="M 605.706,78.7651 C 624.905,87.7838 650.385,115.032 667.473,148.335"
       transform="matrix(-1.726323,0,0,0.96939,1523.873,-17.61885)"
       id="path1225"
       style="fill:none;fill-opacity:1;fill-rule:evenodd;stroke:#000000;stroke-width:1pt;stroke-linecap:butt;stroke-linejoin:miter;stroke-opacity:0.35833297" />
    <path
       d="M 488.589,33.2626 C 559.292,53.3286 573.587,61.4606 622.617,109.939"
       transform="matrix(-1.325691,0,0,1,1072.965,36.90912)"
       id="path1227"
       style="fill:none;fill-opacity:1;fill-rule:evenodd;stroke:#000000;stroke-width:1pt;stroke-linecap:butt;stroke-linejoin:miter;stroke-opacity:0.44166697" />
  </g>
  <g
     transform="matrix(1.1975772,0,0,1.1975772,-171.26986,-29.895195)"
     id="g3620">
    <path
       d="M 181.196,706.764 C 181.196,706.764 145.841,703.229 105.182,722.674 C 83.9688,727.977 85.7367,743.666 93.4708,755.046 C 104.744,769.932 139.654,769.078 177.661,768.636 L 235.996,719.138 L 181.196,706.764 z"
       transform="matrix(0.542424,0,0,0.542424,453.3734,140.5951)"
       id="path1149"
       style="font-size:12px;fill:#989898;fill-rule:evenodd;stroke:#000000;stroke-width:3.75" />
    <path
       d="M 441.942,727.977 L 244.836,719.138 C 202.41,723.557 191.803,736.816 189.151,743.003 C 173.241,749.19 180.312,761.564 179.428,769.519 C 211.248,810.178 399.515,790.732 444.593,753.609 C 452.548,738.583 442.826,727.977 441.942,727.977 z"
       transform="matrix(0.542424,0,0,0.542424,453.3734,140.5951)"
       id="path1150"
       style="font-size:12px;fill:#999999;fill-rule:evenodd;stroke:#000000;stroke-width:3.75" />
    <path
       d="M 276.655,650.195 L 272.236,689.086 C 252.791,690.853 242.184,698.808 235.997,702.344 C 199.758,700.576 182.08,707.648 182.08,707.648 C 182.08,707.648 209.48,712.951 207.713,725.326 C 249.255,713.393 305.823,713.172 313.116,763.664 C 377.752,761.915 415.425,749.19 443.71,728.861 L 424.264,671.408 L 276.655,650.195 z"
       transform="matrix(0.542424,0,0,0.542424,453.3734,140.5951)"
       id="path1151"
       style="font-size:12px;fill:#008020;fill-rule:evenodd;stroke:#000000;stroke-width:3.75" />
    <path
       d="M 439.754,409.976 C 398.365,467.749 456.137,450.503 446.652,553.112 C 413.024,572.945 465.622,690.211 575.991,701.421 C 665.667,716.942 721.713,727.289 724.3,766.953 C 724.3,799.719 643.248,809.204 643.248,809.204 L 649.284,818.689 L 510.46,822.138 L 620.829,760.917 L 631.176,783.336 C 657.044,791.096 694.984,774.713 688.086,760.917 C 678.601,716.942 538.052,751.432 427.682,671.242 L 277.843,653.178 C 273.381,661.133 228.5,613.471 250.057,571.22 L 252.643,468.61 C 289.72,476.371 287.996,461.712 285.409,441.018 L 439.754,409.976 z"
       transform="matrix(0.542424,0,0,0.542424,453.3734,140.5951)"
       id="path1152"
       style="font-size:12px;fill:#980000;fill-rule:evenodd;stroke:#000000;stroke-width:3.75" />
    <path
       d="M 444.927,553.112 C 419.016,565.14 441.726,666.589 550.986,697.972 C 594.192,709.699 707.642,708.566 721.714,761.78 C 731.495,798.348 639.799,807.479 639.799,807.479 L 647.559,816.102 L 517.358,819.551 L 630.314,807.48 C 651.871,796.27 712.576,786.781 712.229,763.504 C 711.714,729.009 634.524,727.446 532.878,715.417 C 488.802,710.201 451.303,684.532 427.682,669.518 L 332.383,657.897 C 370.971,632.696 345.795,621.265 319.186,605.115 C 410.707,597.587 376.809,575.612 444.927,553.112 z"
       transform="matrix(0.542424,0,0,0.542424,453.3734,140.5951)"
       id="path1153"
       style="font-size:12px;fill:#800000;fill-rule:evenodd;stroke-width:1pt" />
    <path
       d="M 206.829,246.26 C 207.271,173.782 171.916,170.026 253.012,98.2101 C 281.733,73.0891 313.337,60.645 313.778,72.1354 C 318.198,82.742 253.675,121.633 280.191,150.801 L 206.829,246.26 z"
       transform="matrix(0.542424,0,0,0.542424,453.3734,140.5951)"
       id="path1154"
       style="font-size:12px;fill:#b30000;fill-rule:evenodd;stroke:#000000;stroke-width:3.75" />
    <path
       d="M 446.176,550.909 C 449.071,441.155 400.419,473.167 436.186,411.367 L 379.265,416.771 C 416.849,457.112 454.433,568.741 343.125,572.987 L 425.625,654.862 C 425.625,654.862 495,708.763 633.75,713.138 C 516.617,693.383 505.067,685.062 463.75,640.487 C 450.865,626.391 418.249,575.943 446.176,550.909 z"
       transform="matrix(0.542424,0,0,0.542424,453.3734,140.5951)"
       id="path1155"
       style="font-size:12px;fill:#7d0000;fill-rule:evenodd;stroke-width:1pt" />
    <path
       d="M 290.798,164.059 C 242.184,115.445 201.525,265.706 197.106,292.223 C 174.19,311.625 156.447,331.113 181.196,378.843 C 212.132,408.895 215.668,390.333 259.862,424.805 C 304.056,459.276 347.366,439.831 362.392,428.34 C 377.418,416.85 446.361,430.108 476.413,374.423 C 506.465,318.739 483.484,305.481 487.903,294.874 C 502.488,287.803 541.6,266.148 563.586,224.053 C 585.36,180.62 556.847,107.049 501.162,90.6969 C 471.994,93.3485 572.756,157.872 468.458,184.389 C 439.29,156.988 435.883,148.487 364.16,134.007 C 343.589,130.032 252.791,149.917 290.798,164.059 z"
       transform="matrix(0.542424,0,0,0.542424,453.3734,140.5951)"
       id="path1156"
       style="font-size:12px;fill:#9a0000;fill-rule:evenodd;stroke:#000000;stroke-width:3.75;stroke-linecap:round" />
    <path
       d="M 327.5,191.112 C 361.25,198.612 362.5,237.362 361.719,269.549 C 360.84,307.173 338.125,347.362 293.75,343.612 C 283.125,344.237 264.375,329.237 261.875,302.518 C 259.375,275.799 300.625,189.862 327.5,191.112 z"
       transform="matrix(0.542424,0,0,0.542424,453.3734,140.5951)"
       id="path1157"
       style="font-size:12px;fill:#ffffe6;fill-rule:evenodd;stroke:#000000;stroke-width:3.75;stroke-dashoffset:0" />
    <path
       d="M 279.331,183.978 C 265.045,179.344 237.5,208.612 223.75,238.456 C 210,268.299 205.625,300.487 220,306.112 C 243.125,317.362 260.451,285.967 266.313,247.068 C 272.188,207.196 300.5,194.282 279.331,183.978 z"
       transform="matrix(0.542424,0,0,0.542424,453.3734,140.5951)"
       id="path1158"
       style="font-size:12px;fill:#ffffe6;fill-rule:evenodd;stroke:#000000;stroke-width:3.75" />
    <path
       d="M 236.881,247.144 C 213.627,254.058 210.467,296.216 220.087,302.829 C 224.609,305.938 235.997,311.668 249.255,288.686 C 259.862,267.473 246.331,244.335 236.881,247.144 z"
       transform="matrix(0.542424,0,0,0.542424,453.3734,140.5951)"
       id="path1159"
       style="font-size:12px;fill-rule:evenodd;stroke-width:1pt" />
    <path
       d="M 235.997,253.331 C 223.623,255.1 225.39,274.545 225.39,274.545 C 228.926,278.081 242.184,260.403 235.997,253.331 z"
       transform="matrix(0.542424,0,0,0.542424,453.3734,140.5951)"
       id="path1160"
       style="font-size:12px;fill:#ffffff;fill-rule:evenodd;stroke-width:1pt" />
    <path
       d="M 233.345,243.608 C 212.293,254.904 209.48,295.758 214.784,300.178 C 225.39,318.739 254.541,307.663 255.442,285.151 C 256.309,263.468 248.533,235.459 233.345,243.608 z"
       transform="matrix(0.542424,0,0,0.542424,482.1397,148.7456)"
       id="path1161"
       style="font-size:12px;fill-rule:evenodd;stroke-width:1pt" />
    <path
       d="M 241.3,247.144 C 228.926,248.913 225.39,274.545 233.345,277.197 C 236.881,280.733 247.487,254.216 241.3,247.144 z"
       transform="matrix(0.542424,0,0,0.542424,479.7426,148.2661)"
       id="path1162"
       style="font-size:12px;fill:#ffffff;fill-rule:evenodd;stroke-width:1pt" />
    <path
       d="M 255.442,319.623 C 200.642,304.597 209.48,341.72 209.48,341.72 C 209.48,341.72 216.552,370.888 258.978,362.049 C 328.805,370.888 262.513,332.881 262.513,331.997"
       transform="matrix(0.542424,0,0,0.542424,453.3734,140.5951)"
       id="path1163"
       style="font-size:12px;fill:none;fill-rule:evenodd;stroke:#000000;stroke-width:3.75;stroke-linecap:round" />
    <path
       d="M 206.829,370.888 C 235.997,377.075 238.367,421.514 279.307,423.037 C 330.221,424.964 362.392,376.191 380.07,395.636"
       transform="matrix(0.542424,0,0,0.542424,453.3734,140.5951)"
       id="path1164"
       style="font-size:12px;fill:none;fill-rule:evenodd;stroke:#000000;stroke-width:3.75;stroke-linecap:round" />
    <path
       d="M 506.465,105.723 C 587.782,177.318 466.69,239.19 455.2,219.744 L 441.942,191.46 C 441.942,191.46 563.034,193.227 506.465,105.723 z"
       transform="matrix(0.542424,0,0,0.542424,454.3322,141.0745)"
       id="path1165"
       style="font-size:12px;fill:url(#radialGradient3455);fill-rule:evenodd;stroke-width:1pt" />
    <path
       d="M 365.044,340.836 C 334.992,333.765 342.063,338.185 301.404,343.488"
       transform="matrix(0.542424,0,0,0.542424,453.3734,140.5951)"
       id="path1166"
       style="font-size:12px;fill:none;fill-rule:evenodd;stroke:#000000;stroke-width:3.75" />
    <path
       d="M 500.278,92.4646 C 554.195,108.816 574.525,167.153 567.785,206.928 C 561.046,246.703 509.559,282.499 484.368,294.874 C 505.582,339.952 464.694,400.284 434.871,409.779 C 410.908,417.641 384.156,421.999 365.044,424.385 C 362.233,424.752 333.156,454.799 286.959,437.565 C 353.995,442.261 371.006,386.672 400.4,401.823 C 425.101,415.439 482.379,302.386 426.032,246.26 C 489.671,261.286 620.486,194.112 500.278,92.4646 z"
       transform="matrix(0.542424,0,0,0.542424,453.3734,140.5951)"
       id="path1167"
       style="font-size:12px;fill:#860000;stroke-width:1pt" />
    <path
       d="M 282.843,154.779 C 286.82,145.939 341.875,133.419 354.548,134.67 C 422.529,142.265 442.383,160.524 468.458,187.04 L 432.219,202.066 C 403.051,136.217 331.441,121.411 292.165,165.192 L 282.843,154.779 z"
       transform="matrix(0.542424,0,0,0.542424,453.3734,140.5951)"
       id="path1168"
       style="font-size:12px;fill:#800000;fill-rule:evenodd;stroke-width:1.25" />
    <path
       d="M 350.017,332.881 C 388.026,212.672 342.063,173.782 308.475,187.04 C 358.857,142.845 400.399,217.093 400.399,336.417 L 350.017,332.881 z"
       transform="matrix(0.542424,0,0,0.542424,453.3734,140.5951)"
       id="path1169"
       style="font-size:12px;fill:url(#linearGradient1038);fill-rule:evenodd;stroke-width:1pt" />
    <path
       d="M 317.314,172.898 C 368.579,146.382 373.883,203.834 373.883,203.834"
       transform="matrix(0.542424,0,0,0.542424,453.3734,140.5951)"
       id="path1170"
       style="font-size:12px;fill:none;fill-rule:evenodd;stroke:#000000;stroke-width:3.75;stroke-linecap:round" />
    <path
       d="M 232.461,322.275 C 209.187,325.23 216.452,350.256 228.926,354.094 C 274.004,368.236 264.872,318.159 232.461,322.275 z"
       transform="matrix(0.542424,0,0,0.542424,453.3734,140.5951)"
       id="path1171"
       style="font-size:12px;fill:url(#radialGradient3462);fill-rule:evenodd;stroke-width:1pt" />
    <path
       d="M 30.1792,413.426 C 48.2867,429.809 93.1244,488.442 146.585,437.569 L 396.641,656.584 C 407.85,660.033 422.509,645.374 413.886,636.752 L 160.381,420.324 C 167.279,416.013 183.662,380.66 149.171,360.828 L 154.345,354.792 C 143.998,343.583 106.059,330.649 106.059,330.649 C 120.717,349.619 124.166,348.756 129.339,372.899 L 142.273,366.001 C 142.273,366.001 175.039,390.144 144.86,409.976 L 112.956,385.833 L 118.992,378.935 C 101.747,383.246 83.6395,369.45 83.6395,369.45 C 76.7413,372.037 92.262,391.869 94.8488,409.976 L 103.472,399.629 L 130.202,422.91 C 130.202,422.91 95.7112,453.09 70.7055,431.533 L 82.7773,419.461 C 63.8075,423.772 56.0471,420.324 30.1792,413.426 z"
       transform="matrix(0.542424,0,0,0.542424,453.3734,140.5951)"
       id="path1172"
       style="font-size:12px;fill:#ffcc00;fill-rule:evenodd;stroke:#000000;stroke-width:3.75" />
    <path
       d="M 143.478,381.898 C 198.522,421.001 345.608,549.439 449.381,637.27"
       transform="matrix(0.542424,0,0,0.542424,432.8157,144.0214)"
       id="path1173"
       style="font-size:12px;fill:none;fill-rule:evenodd;stroke:#ffff00;stroke-width:3.75;stroke-linecap:round" />
    <path
       d="M 123.626,387.312 C 165.887,424.008 191.905,422.805 221.533,392.727 L 473.346,613.507"
       transform="matrix(0.542424,0,0,0.542424,412.7473,162.1317)"
       id="path1174"
       style="font-size:12px;fill:none;fill-rule:evenodd;stroke:#ffa600;stroke-width:3.75;stroke-linecap:round" />
    <path
       d="M 387.156,477.233 C 383.707,522.934 352.665,504.826 339.731,504.826 C 312.139,466.024 264.715,491.891 264.715,491.891 C 264.715,491.891 195.733,568.633 285.409,572.082 L 250.056,566.046 C 257.816,576.393 268.164,599.674 313.864,587.602 L 277.648,591.914 C 314.294,619.937 397.718,597.087 376.269,536.082 L 382.968,562.966 C 343.611,620.935 359.131,568.416 433.717,560.872"
       transform="matrix(0.542424,0,0,0.542424,453.3734,140.5951)"
       id="path1175"
       style="font-size:12px;fill:#980000;fill-rule:evenodd;stroke:#000000;stroke-width:3.75;stroke-linecap:round" />
    <path
       d="M 319.965,169.363 C 357.973,153.453 372.115,179.97 377.418,205.602 L 399.516,192.344 C 390.676,186.156 370.347,138.427 319.965,169.363 z"
       transform="matrix(0.542424,0,0,0.542424,453.3734,140.5951)"
       id="path1176"
       style="font-size:12px;fill:#800000;fill-rule:evenodd;stroke-width:1pt" />
    <path
       d="M 198.875,293.106 C 144.139,327.157 181.196,393.428 205.061,390.334 C 199.758,377.075 177.439,346.36 209.591,363.596 C 181.031,321.832 216.468,177.815 285.951,163.231 C 245.388,121.246 203.515,262.612 198.875,293.106 z"
       transform="matrix(0.542424,0,0,0.542424,453.3734,140.5951)"
       id="path1177"
       style="font-size:12px;fill:url(#radialGradient3459);fill-rule:evenodd;stroke-width:1pt" />
    <path
       d="M 384.49,383.262 C 400.399,331.113 324.386,353.21 298.753,353.21 C 324.385,361.165 285.494,392.101 247.487,377.075 C 277.539,402.708 294.897,401.045 318.198,387.682 C 355.001,366.574 363.277,375.307 384.49,383.262 z"
       transform="matrix(0.542424,0,0,0.542424,453.3734,140.5951)"
       id="path1178"
       style="font-size:12px;fill:url(#radialGradient3460);fill-rule:evenodd;stroke-width:1pt" />
    <path
       d="M 265.386,336.195 C 280.412,345.034 290.768,354.701 288.809,358.735 C 286.143,364.525 277.54,361.828 258.094,360.061 C 268.406,356.23 278.939,350.632 265.386,336.195 z"
       transform="matrix(0.542424,0,0,0.542424,453.3734,140.5951)"
       id="path1179"
       style="font-size:12px;fill:#800000;fill-rule:evenodd;stroke-width:1pt" />
    <path
       d="M 301.404,73.9031 C 259.861,96.8841 255.663,103.292 230.251,127.378 C 212.795,144.53 195.338,171.13 215.667,221.512 L 236.881,177.317 C 217.436,144.613 269.584,102.187 301.404,73.9031 z"
       transform="matrix(0.542424,0,0,0.542424,453.3734,140.5951)"
       id="path1180"
       style="font-size:12px;fill:url(#radialGradient3461);fill-rule:evenodd;stroke-width:1pt" />
    <path
       d="M 309.58,78.3225 C 264.944,128.262 267.596,134.67 279.086,153.453 C 264.06,150.802 259.862,155.441 251.244,161.187 C 249.476,148.813 246.825,126.052 309.58,78.3225 z"
       transform="matrix(0.542424,0,0,0.542424,453.3734,140.5951)"
       id="path1181"
       style="font-size:12px;fill:#800000;fill-rule:evenodd;stroke-width:1pt" />
    <path
       d="M 618.242,770.402 L 535.466,814.377 L 626.003,791.959 L 618.242,770.402 z"
       transform="matrix(0.542424,0,0,0.542424,453.3734,140.5951)"
       id="path1182"
       style="font-size:12px;fill:url(#linearGradient1039);fill-rule:evenodd;stroke-width:1pt" />
    <path
       d="M 195.338,698.809 C 184.525,701.529 128.011,780.698 200.641,763.332 C 280.328,744.491 254.402,683.725 195.338,698.809 z"
       transform="matrix(0.542424,0,0,0.542424,495.0846,26.4886)"
       id="path1183"
       style="font-size:12px;fill:url(#radialGradient3457);fill-rule:evenodd;stroke-width:1pt" />
    <path
       d="M 224.188,468.61 C 283.684,463.437 279.373,486.718 273.337,505.688 C 270.75,518.621 246.585,550.46 222.442,528.041 L 256.352,484.496 C 236.928,498.616 220.028,566.327 181.01,506.42 L 224.188,468.61 z"
       transform="matrix(0.542424,0,0,0.542424,453.3734,140.5951)"
       id="path1184"
       style="font-size:12px;fill:#9a0000;fill-rule:evenodd;stroke:#000000;stroke-width:3.75" />
    <path
       d="M 220.087,722.673 C 208.964,721.899 176.342,750.908 214.783,755.377 C 238.064,758.023 243.795,724.384 220.087,722.673 z"
       transform="matrix(0.542424,0,0,0.542424,447.1407,12.10521)"
       id="path1185"
       style="font-size:12px;fill:url(#radialGradient3465);fill-rule:evenodd;stroke-width:1pt" />
    <path
       d="M 193.147,458.263 C 147.449,460.882 156.83,515.929 201.77,509.136 C 227.598,505.102 237.478,454.86 193.147,458.263 z"
       transform="matrix(0.542424,0,0,0.542424,453.3734,140.5951)"
       id="path1186"
       style="font-size:12px;fill:#9a0000;fill-rule:evenodd;stroke:#000000;stroke-width:3.75" />
    <path
       d="M 287.995,480.682 C 330.246,451.366 392.329,449.641 392.329,449.641 C 392.329,449.641 369.911,484.132 374.222,498.79 C 336.282,494.479 338.007,478.957 287.995,480.682 z"
       transform="matrix(0.542424,0,0,0.542424,453.3734,140.5951)"
       id="path1187"
       style="font-size:12px;fill:url(#radialGradient3456);fill-rule:evenodd;stroke-width:1pt" />
    <path
       d="M 249.172,577.476 C 242.231,596.424 247.266,629.867 273.758,651.852 L 316.672,655.765 C 370.702,613.464 282.647,628.837 249.172,577.476 z"
       transform="matrix(0.542424,0,0,0.542424,453.3734,140.5951)"
       id="path1188"
       style="font-size:12px;fill:url(#radialGradient3458);fill-rule:evenodd;stroke-width:1pt" />
    <path
       d="M 676.876,741.948 C 700.157,742.81 720.852,766.091 684.636,778.162 C 704.469,767.816 691.534,745.397 676.876,741.948 z"
       transform="matrix(0.542424,0,0,0.542424,453.3734,140.5951)"
       id="path1189"
       style="font-size:12px;fill:url(#linearGradient3619);fill-rule:evenodd;stroke-width:1pt" />
    <path
       d="M 318.539,658.927 C 323.05,665.244 326.659,677.877 321.245,695.022 L 341.098,662.537 L 318.539,658.927 z"
       transform="matrix(0.542424,0,0,0.542424,453.3734,140.5951)"
       id="path1190"
       style="font-size:12px;fill:#006716;fill-rule:evenodd;stroke-width:1pt" />
    <path
       d="M 324.385,721.79 C 393.328,719.138 381.455,659.749 347.366,659.034 C 323.034,658.506 333.224,691.738 319.082,699.693 C 284.611,718.255 276.656,714.718 252.791,716.486"
       transform="matrix(0.542424,0,0,0.542424,453.3734,140.5951)"
       id="path1191"
       style="font-size:12px;fill:#007f19;fill-rule:evenodd;stroke:#000000;stroke-width:3.75;stroke-linecap:round" />
    <path
       d="M 320.85,695.273 C 308.476,613.072 264.281,667.873 273.12,688.202"
       transform="matrix(0.542424,0,0,0.542424,453.3734,140.5951)"
       id="path1192"
       style="font-size:12px;fill:#007f1c;fill-rule:evenodd;stroke:#000000;stroke-width:3.75;stroke-linecap:round" />
    <path
       d="M 424.265,673.176 L 441.659,727.977 C 398.349,762.449 335.876,759.796 314.663,762.448 L 313.779,755.377 C 428.684,745.655 421.612,707.648 405.702,670.525 L 424.265,673.176 z"
       transform="matrix(0.542424,0,0,0.542424,453.3734,140.5951)"
       id="path1193"
       style="font-size:12px;fill:#006714;fill-rule:evenodd;stroke-width:1pt" />
    <path
       d="M 410.122,685.551 C 387.681,690.785 395.98,719.138 410.122,716.487 C 428.405,712.83 425.248,681.817 410.122,685.551 z"
       transform="matrix(0.542424,0,0,0.542424,453.3734,140.5951)"
       id="path1194"
       style="font-size:12px;fill:#999999;fill-rule:evenodd;stroke:#000000;stroke-width:3.75" />
    <path
       d="M 291.682,714.718 C 301.405,712.067 319.082,713.835 324.386,720.906"
       transform="matrix(0.542424,0,0,0.542424,459.1266,138.6773)"
       id="path1195"
       style="font-size:12px;fill:none;fill-rule:evenodd;stroke:#ffffe6;stroke-width:3.75;stroke-linecap:round" />
    <path
       d="M 291.681,711.183 C 301.404,708.532 323.501,712.067 328.805,719.138"
       transform="matrix(0.542424,0,0,0.542424,469.1949,134.8419)"
       id="path1196"
       style="font-size:12px;fill:none;fill-rule:evenodd;stroke:#ffffe6;stroke-width:3.75;stroke-linecap:round" />
    <path
       d="M 290.798,705.879 C 300.521,703.228 320.849,706.764 328.805,714.719"
       transform="matrix(0.542424,0,0,0.542424,474.9482,131.0064)"
       id="path1197"
       style="font-size:12px;fill:none;fill-rule:evenodd;stroke:#ffffe6;stroke-width:3.75;stroke-linecap:round" />
    <path
       d="M 287.262,714.718 C 296.985,712.067 311.127,712.067 325.269,720.906"
       transform="matrix(0.542424,0,0,0.542424,477.8248,119.4998)"
       id="path1198"
       style="font-size:12px;fill:none;fill-rule:evenodd;stroke:#ffffe6;stroke-width:3.75;stroke-linecap:round" />
    <path
       d="M 292.566,712.95 C 302.289,710.299 329.689,712.067 334.993,719.138"
       transform="matrix(0.542424,0,0,0.542424,418.8537,136.2802)"
       id="path1199"
       style="font-size:12px;fill:none;fill-rule:evenodd;stroke:#ffffe6;stroke-width:3.75;stroke-linecap:round" />
    <path
       d="M 294.333,712.95 C 304.056,710.299 327.921,712.951 333.225,720.022"
       transform="matrix(0.542424,0,0,0.542424,432.7574,131.4858)"
       id="path1200"
       style="font-size:12px;fill:none;fill-rule:evenodd;stroke:#ffffe6;stroke-width:3.75;stroke-linecap:round" />
    <path
       d="M 292.566,711.182 C 302.289,708.531 326.153,714.719 331.457,721.79"
       transform="matrix(0.542424,0,0,0.542424,444.7434,126.6914)"
       id="path1201"
       style="font-size:12px;fill:none;fill-rule:evenodd;stroke:#ffffe6;stroke-width:3.75;stroke-linecap:round" />
    <path
       d="M 290.798,715.602 C 300.521,712.951 320.85,713.835 326.154,720.906"
       transform="matrix(0.542424,0,0,0.542424,446.1817,118.0614)"
       id="path1202"
       style="font-size:12px;fill:none;fill-rule:evenodd;stroke:#ffffe6;stroke-width:3.75;stroke-linecap:round" />
    <path
       d="M 187.383,743.887 C 195.338,759.797 215.668,769.519 312.011,764.216"
       transform="matrix(0.542424,0,0,0.542424,453.3734,140.5951)"
       id="path1203"
       style="font-size:12px;fill:none;fill-rule:evenodd;stroke:#000000;stroke-width:3.75" />
    <path
       d="M 250.139,725.325 C 199.281,729.198 170.483,753.227 242.184,758.029 C 289.756,761.275 285.474,723.518 250.139,725.325 z"
       transform="matrix(0.542424,0,0,0.542424,453.3734,140.5951)"
       id="path1204"
       style="font-size:12px;fill:#ffffe6;fill-rule:evenodd;stroke-width:1pt" />
    <path
       d="M 190.919,718.254 C 170.113,753.062 283.95,754.994 282.843,742.119 C 281.573,726.346 233.653,743.007 190.919,718.254 z"
       transform="matrix(0.542424,0,0,0.542424,451.4556,160.2521)"
       id="path1205"
       style="font-size:12px;fill:#ffffe6;fill-rule:evenodd;stroke-width:1pt" />
    <path
       d="M 187.383,743.887 C 195.338,759.797 228.926,765.1 279.307,756.261"
       transform="matrix(0.542424,0,0,0.542424,405.4294,131.0063)"
       id="path1206"
       style="font-size:12px;fill:none;fill-rule:evenodd;stroke:#000000;stroke-width:3.75" />
    <path
       d="M 251.023,728.86 C 205.49,736.404 164.898,747.903 238.648,754.493 C 281.607,757.817 281.507,723.956 251.023,728.86 z"
       transform="matrix(0.542424,0,0,0.542424,405.4294,131.9652)"
       id="path1207"
       style="font-size:12px;fill:#ffffe6;fill-rule:evenodd;stroke-width:1pt" />
    <path
       d="M 190.919,718.254 C 170.113,748.643 257.433,754.994 256.326,739.467 C 255.133,723.688 233.653,743.007 190.919,718.254 z"
       transform="matrix(0.542424,0,0,0.542424,402.0732,149.225)"
       id="path1208"
       style="font-size:12px;fill:#ffffe6;fill-rule:evenodd;stroke-width:1pt" />
    <path
       d="M 216.551,725.325 C 205.468,726.546 174.575,750.908 218.319,755.377 C 241.701,756.882 241.143,723.5 216.551,725.325 z"
       transform="matrix(0.542424,0,0,0.542424,436.593,-2.75716)"
       id="path1209"
       style="font-size:12px;fill:url(#radialGradient3464);fill-rule:evenodd;stroke-width:1pt" />
    <path
       d="M 195.734,464.299 C 149.978,463.044 156.83,515.929 201.77,509.136 C 227.598,505.102 228.855,466.069 195.734,464.299 z"
       transform="matrix(0.542424,0,0,0.542424,461.7921,117.2095)"
       id="path1210"
       style="font-size:12px;fill:#9a0000;fill-rule:evenodd;stroke:#000000;stroke-width:3.75" />
    <path
       d="M 217.435,726.209 C 203.7,726.546 174.575,750.908 218.319,755.377 C 241.701,756.882 242.087,725.594 217.435,726.209 z"
       transform="matrix(0.542424,0,0,0.542424,446.1817,-23.8532)"
       id="path1211"
       style="font-size:12px;fill:url(#radialGradient3463);fill-rule:evenodd;stroke-width:1pt" />
    <path
       d="M 374.767,537.942 C 395.096,598.046 313.778,613.072 284.61,593.626 C 334.108,586.555 357.973,586.556 374.767,537.942 z"
       transform="matrix(0.542424,0,0,0.542424,453.3734,140.5951)"
       id="path1212"
       style="font-size:12px;fill:#7f0000;fill-rule:evenodd;stroke-width:1pt" />
    <path
       d="M 357.09,580.368 C 347.366,592.743 290.797,628.982 266.048,585.671 C 298.753,593.626 310.243,595.395 357.09,580.368 z"
       transform="matrix(0.542424,0,0,0.542424,447.6201,131.4857)"
       id="path1213"
       style="font-size:12px;fill:#800000;fill-rule:evenodd;stroke-width:1pt" />
    <path
       d="M 313.78,541.477 C 321.733,566.226 290.355,608.211 265.606,586.113 C 295.659,547.222 305.824,526.452 313.78,541.477 z"
       transform="matrix(0.542424,0,0,0.542424,431.3192,108.9521)"
       id="path1214"
       style="font-size:12px;fill:#800000;fill-rule:evenodd;stroke-width:1pt" />
    <path
       d="M 83.9209,374.679 C 93.2454,380.695 105.277,384.004 114.601,380.996"
       transform="matrix(0.542424,0,0,0.542424,429.8788,165.0685)"
       id="path1215"
       style="font-size:12px;fill:none;fill-rule:evenodd;stroke:#ffff00;stroke-width:3.75;stroke-linecap:round" />
    <path
       d="M 137.161,343.998 C 162.728,356.33 160.322,388.515 148.891,399.946"
       transform="matrix(0.542424,0,0,0.542424,458.2679,150.3845)"
       id="path1216"
       style="font-size:12px;fill:none;fill-rule:evenodd;stroke:#ffa600;stroke-width:3.75;stroke-linecap:round" />
    <path
       d="M 91.1399,345.803 C 121.069,370.919 151.899,355.654 173.368,335.877 C 194.799,317.034 206.944,305.347 175.962,277.223"
       transform="matrix(0.542424,0,0,0.542424,436.2419,187.0946)"
       id="path1217"
       style="font-size:12px;fill:none;fill-rule:evenodd;stroke:#ffff00;stroke-width:3.75;stroke-linecap:round" />
    <path
       d="M 186.792,417.992 L 213.862,441.455"
       transform="matrix(0.542424,0,0,0.542424,408.8315,128.3584)"
       id="path1218"
       style="font-size:12px;fill:none;fill-rule:evenodd;stroke:#ffa600;stroke-width:3.75;stroke-linecap:round" />
    <path
       d="M 210.254,455.892 L 221.081,481.159"
       transform="matrix(0.542424,0,0,0.542424,386.3162,97.52182)"
       id="path1219"
       style="font-size:12px;fill:none;fill-rule:evenodd;stroke:#ffa600;stroke-width:3.75;stroke-linecap:round" />
    <path
       d="M 85.7256,373.777 C 94.1477,380.695 99.8626,385.809 109.186,385.508"
       transform="matrix(0.542424,0,0,0.542424,453.3734,140.5951)"
       id="path1220"
       style="font-size:12px;fill:none;fill-rule:evenodd;stroke:#ffff00;stroke-width:3.75;stroke-linecap:round" />
    <path
       d="M 223.79,454.99 C 230.106,463.412 236.422,470.932 237.324,482.964"
       transform="matrix(0.542424,0,0,0.542424,396.1053,77.94302)"
       id="path1221"
       style="font-size:12px;fill:none;fill-rule:evenodd;stroke:#ffa600;stroke-width:3.75;stroke-linecap:round" />
    <path
       d="M 122.724,378.288 C 133.853,382.499 143.177,390.321 151.598,394.531"
       transform="matrix(0.542424,0,0,0.542424,450.4365,119.5479)"
       id="path1222"
       style="font-size:12px;fill:none;fill-rule:evenodd;stroke:#ffff00;stroke-width:3.75;stroke-linecap:round" />
    <path
       d="M 270.569,725.475 C 257.315,727.694 259.202,744.816 268.127,747.427 C 261.72,736.163 265.039,731.462 270.569,725.475 z"
       transform="matrix(0.542424,0,0,0.542424,529.2411,121.5058)"
       id="path1223"
       style="font-size:12px;fill:#ffffe6;fill-rule:evenodd;stroke-width:1pt" />
    <path
       d="M 406.553,647.339 C 417.361,643.182 422.765,671.865 404.474,674.776 C 413.204,667.293 417.777,653.575 406.553,647.339 z"
       transform="matrix(0.542424,0,0,0.542424,456.0854,162.2921)"
       id="path1224"
       style="font-size:12px;fill:#4c4c4c;fill-rule:evenodd;stroke-width:1pt" />
  </g>
  <path
     d="M 222.0817,356.88632 L 147.1457,554.44465 L 242.51835,622.56883 L 320.17884,618.4815 L 373.31534,510.84565 L 305.19236,344.62433 L 222.0817,356.88632 z"
     id="path1714"
     style="font-size:12px;fill:#ffffff;fill-rule:evenodd;stroke-width:1" />
  <g
     transform="matrix(0.7093214,0,0,0.7093214,126.03227,42.355318)"
     id="g1715"
     style="font-size:12px;fill:#c1c1bf">
    <path
       d="M 329.336,727.552 C 315.224,726.328 304.136,715.816 303.128,694.936 C 306.368,639.496 309.608,582.112 271.232,545.104 C 265.256,499.024 244.016,482.104 234.008,452.512 L 218.24,441.208 L 237.104,411.688 L 245.168,411.904 L 323.936,571.168 L 340.424,651.448 L 329.336,727.552 z"
       id="path1716" />
  </g>
  <g
     transform="matrix(0.7093214,0,0,0.7093214,126.03227,42.355318)"
     id="g1717"
     style="font-size:12px;fill:#c1c1bf">
    <path
       d="M 136.232,439.696 C 133.856,455.248 132.56,470.512 134.792,485.272 C 118.376,507.592 105.92,530.128 104.48,553.312 C 92.024,586.504 62.432,614.584 67.544,680.104 C 84.176,697.456 107.432,713.584 127.376,730.36 C 152.432,751.312 137.528,778.96 102.248,772.408 C 94.4,763.768 76.616,709.624 42.92,676.288 L 49.544,632.584 L 81.368,547.408 L 120.968,484.048 L 125.36,456.688 L 119.816,386.776 L 124.424,361.216 L 136.232,439.696 z"
       id="path1718" />
  </g>
  <g
     transform="matrix(0.7093214,0,0,0.7093214,126.03227,42.355318)"
     id="g1719"
     style="font-size:12px;fill:#c1c1bf">
    <path
       d="M 115.64,341.416 C 116.576,336.376 117.8,331.624 119.312,327.16 L 121.688,342.784 L 115.64,341.416 z"
       id="path1720" />
  </g>
  <g
     transform="matrix(0.7093214,0,0,0.7093214,126.03227,42.355318)"
     id="g1721"
     style="font-size:12px;fill:#c1c1bf">
    <path
       d="M 120.968,500.464 C 108.368,523.792 103.976,546.256 132.92,550.216 C 117.008,553.888 97.208,568.648 77.192,593.488 L 77.624,543.016 L 101.456,503.272 L 120.968,500.464 z"
       id="path1722" />
  </g>
  <g
     transform="matrix(0.7093214,0,0,0.7093214,126.03227,42.355318)"
     id="g1723"
     style="font-size:12px;fill:#c1c1bf">
    <path
       d="M -33.256,818.488 C 10.52,838.144 41.408,837.064 69.272,850.96 C 91.304,862.552 113.552,861.184 126.944,847.144 C 138.32,832.456 146.744,831.736 163.52,830.224 C 190.952,828.568 217.736,828.28 241.928,830.8 L 269.576,833.032 C 269.072,864.064 328.04,867.88 345.392,844.336 C 366.344,819.424 395.144,808.264 419.84,790.192 L 289.304,725.536 C 255.824,806.464 131.048,827.632 113.768,763.264 L -33.256,818.488 z"
       id="path1724" />
  </g>
  <path
     d="M 227.93738,578.5019 C 224.92418,567.01373 222.14151,565.50927 211.09242,556.01642 L 202.76143,579.55667 L 208.13171,590.74266 C 223.14166,593.79842 228.27288,582.7855 227.93738,578.5019 z"
     id="path1726"
     style="font-size:12px;fill:#c1c1bf" />
  <g
     transform="matrix(0.7093214,0,0,0.7093214,126.03227,42.355318)"
     id="g1727"
     style="font-size:12px">
    <path
       d="M -37.36,821.224 C 7.136,840.88 38.6,839.728 66.968,853.696 C 89.36,865.216 111.968,863.92 125.648,849.808 C 137.24,835.192 145.808,834.472 162.872,832.96 C 190.736,831.232 218.024,831.016 242.648,833.464 L 270.728,835.768 C 270.224,866.8 330.272,870.544 347.912,847 C 369.224,822.088 398.528,811 423.656,792.856 L 290.816,728.272 C 256.76,809.128 129.824,830.296 112.256,766 L -37.36,821.224 z"
       id="path1728" />
  </g>
  <g
     transform="matrix(0.7093214,0,0,0.7093214,126.03227,42.355318)"
     id="g1729"
     style="font-size:12px;fill:#b77200;stroke:#000000;stroke-width:2.11043">
    <path
       d="M 382.328,691.984 C 403.64,698.968 389.888,720.28 400.76,732.52 C 405.44,742.888 415.304,752.032 431.792,760.528 C 459.368,774.424 426.248,799.336 392.768,812.08 C 351.944,825.616 344.024,862.912 299.312,851.896 C 283.112,846.496 278.36,831.808 278.864,809.128 C 284.264,762.76 277.784,730.432 278.792,698.824 C 278.72,686.152 283.544,684.64 307.232,687.952 C 310.04,726.328 352.376,727.336 382.328,691.984 z"
       id="path1730"
       style="stroke:#000000;stroke-width:2.11043;stroke-dasharray:none;stroke-opacity:1" />
  </g>
  <path
     d="M 366.94052,628.69742 C 389.6161,619.96425 412.49597,608.47325 430.93265,597.13545 C 436.60155,593.81582 437.36761,585.64444 429.40052,583.09088 C 412.13847,573.28523 403.29664,561.02815 405.28841,545.09395 C 406.15003,540.36008 404.62371,538.79369 400.56413,534.94329 C 406.60769,560.2862 356.88021,593.21077 343.39672,544.21156 C 343.75421,542.7305 341.80642,533.17948 342.16391,531.74949 C 333.43075,529.962 328.33073,532.47938 328.7393,539.1697 L 335.48069,614.49963 C 337.16604,631.65954 351.10846,635.43881 366.94052,628.69742 z"
     id="path1731"
     style="font-size:12px;fill:url(#linearGradient3791)" />
  <g
     transform="matrix(0.7093214,0,0,0.7093214,126.03227,42.355318)"
     id="g1732"
     style="font-size:12px">
    <path
       d="M 354.464,537.544 C 379.16,569.8 404.432,651.088 384.416,691.552 C 360.944,737.776 307.808,743.248 305.504,695.8 C 308.816,639.64 311.984,581.536 273.68,544.096 C 267.704,497.368 246.392,480.232 236.384,450.28 L 203.12,426.088 L 133.568,435.088 C 130.76,452.152 129.104,468.784 131.552,484.912 C 115.064,507.376 102.608,530.056 101.168,553.312 C 88.712,586.648 59.12,614.944 64.232,680.752 C 80.864,698.248 104.12,714.448 124.064,731.296 C 149.12,752.392 135.512,776.296 100.232,769.672 C 78.848,746.056 56.744,722.872 35.288,699.328 C 12.392,683.056 3.896,662.176 27.368,630.496 C 43.424,609.04 47.96,562.456 62,543.664 C 74.312,525.16 92.24,508.6 105.272,490.096 C 112.184,477.928 114.344,468.568 113.264,454.456 L 110.312,369.136 C 108.368,307.216 142.424,274.24 189.8,275.248 C 243.512,275.752 287.576,312.472 288.152,378.28 C 292.688,410.32 283.256,428.68 308.672,474.472 C 334.52,522.712 338.552,520.12 354.464,537.544 z"
       id="path1733" />
  </g>
  <path
     d="M 311.37511,399.59228 L 312.95832,405.66975 C 308.82155,398.21336 303.62223,385.62786 297.63697,379.77668 C 295.50192,377.68985 291.57157,375.30724 280.45012,383.91911 C 270.27491,392.51963 248.33346,396.17831 234.59391,385.35762 C 233.16392,378.71837 218.06814,370.8903 218.93635,365.32354 L 296.76877,364.04677 C 295.18556,370.8903 305.55301,387.79484 311.37511,399.59228 z"
     id="path1735"
     style="font-size:12px;fill:#c1c1bf" />
  <g
     transform="matrix(0.7093214,0,0,0.7093214,126.03227,42.355318)"
     id="g1736"
     style="font-size:12px;fill:#c1c1bf">
    <path
       d="M 143.144,363.232 C 154.088,363.232 163.88,376.84 163.808,395.632 C 163.736,408.232 155.528,411.472 149.336,417.016 C 146.6,419.536 145.952,433.144 142.568,433.144 C 131.696,433.144 123.488,413.776 123.488,395.632 C 123.488,377.56 132.272,363.232 143.144,363.232 z"
       id="path1737" />
  </g>
  <path
     d="M 231.01212,306.66152 C 237.90672,306.66152 240.13087,311.85206 240.69266,319.9213 C 241.10122,325.48805 239.62017,334.42551 235.73876,336.31513 C 233.95127,337.18335 227.77166,344.99723 225.62667,344.89509 C 216.8935,344.48652 216.70142,326.15049 217.36535,319.79901 C 220.26831,310.29829 224.16859,306.66152 231.01212,306.66152 z"
     id="path1739"
     style="font-size:12px;fill:#ffffff" />
  <g
     transform="matrix(0.7093214,0,0,0.7093214,126.03227,42.355318)"
     id="g1740"
     style="font-size:12px">
    <path
       d="M 141.848,382.672 C 148.544,382.096 154.736,389.728 155.6,399.664 C 156.464,409.6 151.64,418.24 144.944,418.816 C 138.248,419.392 132.056,411.76 131.192,401.752 C 130.328,391.816 135.152,383.248 141.848,382.672 z"
       id="path1741" />
  </g>
  <g
     transform="matrix(-0.7093214,0,0,0.7093214,328.15133,41.148375)"
     id="g1742"
     style="font-size:12px;fill:#c1c1bf;stroke:url(#radialGradient1246)">
    <path
       d="M 151.064,397.288 C 151.424,399.088 149.408,400.024 148.832,398.224 C 148.256,395.992 146.888,393.328 145.088,391.168 C 143.936,389.872 145.088,388.432 146.528,389.44 C 149.048,391.528 150.488,394.12 151.064,397.288 z"
       id="path1743"
       style="stroke:url(#radialGradient2638)" />
  </g>
  <g
     transform="matrix(0.7093214,0,0,0.7093214,126.03227,42.355318)"
     id="g1744"
     style="font-size:12px;fill:#c1c1bf">
    <path
       d="M 216.944,360.712 C 232.712,360.712 245.6,377.416 245.6,397.792 C 245.6,418.24 232.712,434.872 216.944,434.872 C 201.176,434.872 188.432,418.24 188.432,397.792 C 188.432,377.416 201.176,360.712 216.944,360.712 z"
       id="path1745" />
  </g>
  <path
     d="M 287.48602,306.89681 C 295.19776,309.65465 297.63697,317.16346 298.19876,323.64949 C 298.86268,331.10588 295.84948,339.53261 289.36345,344.48652 C 287.5249,345.86544 266.2793,337.48977 265.05359,334.32335 C 263.21502,329.77803 264.66794,321.6175 266.04685,316.45924 C 267.1812,313.84384 269.92961,310.02286 273.02487,307.86716 C 277.46806,305.36468 281.71498,304.85396 287.48602,306.89681 z"
     id="path1747"
     style="font-size:12px;fill:#ffffff" />
  <g
     transform="matrix(0.7093214,0,0,0.7093214,126.03227,42.355318)"
     id="g1748"
     style="font-size:12px">
    <path
       d="M 216.872,380.944 C 225.584,380.944 232.712,389.296 232.712,399.448 C 232.712,409.672 225.584,418.024 216.872,418.024 C 208.16,418.024 201.032,409.672 201.032,399.448 C 201.032,389.296 208.16,380.944 216.872,380.944 z"
       id="path1749" />
  </g>
  <g
     transform="matrix(-0.7093214,0,0,0.7093214,433.0555,41.550582)"
     id="g1750"
     style="font-size:12px;fill:#c1c1bf;stroke:url(#radialGradient1248)">
    <path
       d="M 227.096,392.392 C 228.104,394.048 226.448,395.776 225.224,394.12 C 223.784,392.104 221.408,389.944 218.888,388.432 C 217.232,387.568 217.808,385.624 219.68,386.2 C 222.92,387.28 225.368,389.368 227.096,392.392 z"
       id="path1751"
       style="stroke:url(#radialGradient2636)" />
  </g>
  <g
     transform="matrix(0.7093214,0,0,0.7093214,126.03227,42.355318)"
     id="g1752"
     style="font-size:12px;fill:#b77200;stroke:#000000;stroke-width:2.11043">
    <path
       d="M 164.96,404.488 C 172.376,402.328 184.112,403.048 192.248,404.632 C 200.384,406.792 222.056,418.24 245.024,430.696 C 247.976,432.208 248.84,437.104 245.024,438.688 C 239.12,439.12 249.272,453.664 238.904,458.848 C 223.352,462.88 198.44,485.992 186.128,487.864 C 179.288,489.376 172.232,489.592 164.6,487.864 C 140.552,482.968 134.216,455.608 122.912,450.064 C 119.816,446.824 121.4,441.208 122.408,440.056 C 123.632,434.224 149.696,406.216 164.96,404.488 z"
       id="path1753"
       style="stroke:#000000;stroke-width:2.11043;stroke-dasharray:none;stroke-opacity:1" />
  </g>
  <path
     d="M 259.65232,329.45851 C 268.89619,330.47993 288.50751,342.27738 297.95566,347.02699 C 300.30494,348.30376 300.15173,352.13409 298.0578,352.74695 C 295.81068,354.02373 295.14676,352.44053 293.35926,352.18517 C 290.49928,350.65304 285.80073,354.33016 282.07254,357.13907 C 260.57159,373.37969 256.28161,371.59221 238.91743,369.75364 C 232.89103,368.27259 219.86932,362.27882 212.41931,359.03083 C 212.91725,349.02443 233.15206,332.8129 237.85487,331.68082 C 244.17209,328.12216 255.77091,328.5903 259.65232,329.45851 z"
     id="path1755"
     style="font-size:12px;fill:url(#linearGradient747)" />
  <g
     transform="matrix(0.7093214,0,0,0.7093214,126.03227,42.355318)"
     id="g1756"
     style="font-size:12px;fill:#b77200">
    <path
       d="M 190.664,412.048 L 193.76,413.416 C 196.064,414.712 193.256,418.168 190.736,417.088 L 186.2,415.504 C 183.536,413.272 186.704,410.104 190.664,412.048 z"
       id="path1757" />
  </g>
  <g
     transform="matrix(-0.3055558,-0.1167383,-0.2531511,0.6626099,407.61716,118.56786)"
     id="g1758"
     style="font-size:12px;fill:#c1c1bf">
    <path
       d="M 268.568,452.368 C 273.032,454.384 279.224,457.192 282.536,460.144 C 285.488,464.104 286.784,468.064 286.424,472.024 C 285.776,474.544 284.12,476.344 281.24,477.424 C 277.856,478.216 273.68,477.424 271.376,474.112 C 269.864,471.448 265.256,462.16 263.96,460.576 C 262.232,457.12 261.944,454.456 262.88,452.368 C 264.032,451.288 266.048,451 268.568,452.368 z"
       id="path1759" />
  </g>
  <g
     transform="matrix(-0.3055558,-0.1167383,-0.2531511,0.6626099,407.61716,118.56786)"
     id="g1760"
     style="font-size:12px;fill:#ffffff">
    <path
       d="M 273.752,461.584 C 275.48,462.376 277.928,463.456 279.224,464.68 C 280.376,466.264 280.88,467.776 280.736,469.36 C 280.52,470.296 279.8,471.016 278.72,471.448 C 277.352,471.808 275.768,471.448 274.832,470.152 C 274.256,469.144 272.456,465.472 271.952,464.824 C 271.232,463.456 271.088,462.448 271.448,461.584 C 271.952,461.152 272.744,461.08 273.752,461.584 z"
       id="path1761" />
  </g>
  <g
     transform="matrix(-0.7093214,0,0,0.7093214,384.67865,42.355413)"
     id="g1762"
     style="font-size:12px;fill:#c1c1bf">
    <path
       d="M 238.616,358.552 C 239.048,359.2 238.976,359.776 238.4,360.28 C 237.896,360.784 237.176,360.712 236.24,360.208 L 231.632,356.248 C 231.056,355.744 230.912,354.952 231.272,354.088 C 232.28,353.44 233.144,353.44 233.936,354.088 L 238.616,358.552 z"
       id="path1763" />
  </g>
  <g
     transform="matrix(-0.7093214,0,0,0.7093214,617.51245,46.390219)"
     id="g1764"
     style="font-size:12px;fill:#c1c1bf">
    <path
       d="M 374.912,680.536 C 378.296,683.128 373.256,687.376 371.024,686.296 C 369.152,685.648 367.784,683.488 366.92,682.408 C 366.128,681.184 366.2,679.168 366.92,678.448 C 367.712,677.44 369.728,677.656 371.024,678.52 C 372.32,679.168 373.616,679.888 374.912,680.536 z"
       id="path1765" />
  </g>
  <g
     transform="matrix(0.7093214,0,0,0.7093214,126.03227,42.355318)"
     id="g1766"
     style="font-size:12px;fill:#c1c1bf">
    <path
       d="M 297.44,551.512 C 338.984,572.896 350,611.56 332.072,664.192 C 330.992,666.64 334.16,668.368 335.24,666.064 C 354.824,610.336 341.432,571.312 299.024,548.56 C 296.864,547.552 295.28,550.432 297.44,551.512 z"
       id="path1767" />
  </g>
  <g
     transform="matrix(0.7093214,0,0,0.7093214,126.03227,42.355318)"
     id="g1768"
     style="font-size:12px;fill:#c1c1bf">
    <path
       d="M 72.008,569.512 C 38.312,627.256 38.096,662.68 62.504,681.328 C 63.728,682.264 64.448,680.032 63.296,679.168 C 36.296,655.48 48.896,615.52 74.168,570.88 C 74.888,569.584 72.512,568.432 72.008,569.512 z"
       id="path1769" />
  </g>
  <g
     transform="matrix(0.7093214,0,0,0.7093214,126.03227,42.355318)"
     id="g1770"
     style="font-size:12px;fill:#c1c1bf">
    <path
       d="M 289.376,586.864 C 289.232,589.168 288.368,589.528 286.424,587.368 C 279.8,575.848 235.088,551.44 213.344,548.704 C 209.24,547.264 209.456,545.392 213.488,544.816 C 229.184,544.816 241.28,537.904 254.96,537.904 C 258.704,538.048 262.304,539.488 264.392,541.648 C 269.504,544.96 288.08,570.592 289.376,586.864 z"
       id="path1771" />
  </g>
  <g
     transform="matrix(0.7093214,0,0,0.7093214,126.03227,42.355318)"
     id="g1772"
     style="font-size:12px;fill:#c1c1bf">
    <path
       d="M 180.152,546.832 C 180.872,550.792 163.808,545.68 164.744,556.696 C 165.032,559.72 160.496,561.376 160.64,556.696 C 160.64,548.272 161.072,548.416 152.72,546.832 C 151.208,546.76 151.352,544.528 152.72,544.816 L 152.72,544.816 C 158.696,546.472 166.76,542.872 166.4,538.84 C 166.256,537.472 168.56,537.688 168.488,538.84 C 167.984,545.248 181.664,542.152 180.152,546.832 z"
       id="path1773" />
  </g>
  <g
     transform="matrix(0.7093214,0,0,0.7093214,126.03227,42.355318)"
     id="g1774"
     style="font-size:12px;fill:#c1c1bf">
    <path
       d="M 151.568,705.376 C 151.64,708.328 148.76,707.68 148.544,705.592 C 140.192,680.536 143.72,618.832 151.856,598.96 C 152.432,596.08 156.248,596.944 155.744,598.96 C 147.104,635.464 147.248,673.048 151.568,705.376 z"
       id="path1775" />
  </g>
  <g
     transform="matrix(0.7093214,0,0,0.7093214,126.03227,42.355318)"
     id="g1776"
     style="font-size:12px;fill:#b77200;stroke:#000000;stroke-width:2.11043">
    <path
       d="M 51.704,684.424 C 75.68,707.824 91.376,743.248 114.632,775.288 C 148.472,816.04 121.472,858.304 66.464,845.56 C 38.888,835.192 -0.784,836.344 -32.68,825.832 C -55.072,820.36 -55.864,809.272 -44.416,787.6 C -40.384,773.776 -40.024,751.312 -43.768,732.592 C -45.784,718.408 -39.232,710.488 -24.112,708.832 L -24.112,708.832 C -11.296,708.688 6.56,713.872 16.28,686.44 C 23.552,673.336 40.976,672.976 51.704,684.424 z"
       id="path1777"
       style="stroke:#000000;stroke-width:2.11043;stroke-dasharray:none;stroke-opacity:1" />
  </g>
  <g
     transform="matrix(0.7093214,0,0,0.7093214,126.03227,42.355318)"
     id="g1778"
     style="font-size:12px;fill:url(#linearGradient3792)">
    <path
       d="M 24.632,699.04 C 23.84,680.968 39.32,677.296 49.688,688.312 C 68.192,710.992 85.112,736.048 100.376,764.992 C 124.712,804.16 104.624,842.68 67.904,828.064 C 49.688,817.84 6.128,813.304 -17.344,809.128 C -33.04,807.832 -35.128,797.608 -29.152,791.848 C -20.944,782.416 -20.08,759.808 -27.856,740.512 C -35.56,728.56 -21.088,715.384 -9.712,720.856 C 0.8,727.048 25.64,713.08 24.632,699.04 z"
       id="path1779"
       style="fill:url(#linearGradient2634);fill-opacity:1" />
  </g>
  <path
     d="M 381.50535,82.248794 L 391.29696,83.504885 C 396.85324,84.159313 403.30464,84.33683 407.61166,81.372168 C 409.06652,79.310287 405.7116,77.335854 400.88466,76.314416 C 399.1217,75.748381 397.03881,75.531847 393.21129,75.103773 L 388.45676,74.426855 L 381.50535,82.248794 z M 369.17831,96.099254 L 384.34476,97.037639 C 389.61839,97.242365 393.33315,97.897739 397.61344,97.285298 C 399.62763,96.963629 402.76156,96.497963 403.92696,94.205297 C 404.00379,92.299246 401.91618,90.428941 399.06752,89.155569 C 396.78027,88.149928 391.61579,86.684465 387.77681,86.16104 L 379.239,84.968001 L 369.17831,96.099254 z M 357.71636,100.2988 L 385.76152,71.239096 L 394.21422,71.981366 C 400.28776,72.660632 406.16867,73.688776 408.48873,74.902161 C 411.38906,76.691533 412.66312,78.777772 412.24269,81.020224 C 411.85496,83.088332 409.47659,84.064896 406.75996,85.071136 C 405.11832,85.676153 401.97571,85.831478 399.01606,86.098298 C 402.51444,87.150993 403.81871,87.405885 406.31306,89.385947 C 408.66697,91.558388 408.96715,93.019349 408.85296,95.124606 C 408.48621,97.080764 407.67045,99.265708 405.0256,100.32403 C 402.79292,101.3587 397.91578,101.71849 395.71742,101.68285 C 393.74784,101.65345 388.89669,101.45709 384.81031,101.37459 L 357.71636,100.2988 z M 416.27609,101.38447 L 429.0354,74.685184 L 434.15128,75.418137 L 423.85857,98.704188 L 448.90514,102.11419 L 448.35434,105.60875 L 416.27609,101.38447 z M 459.345,79.504762 L 464.93718,80.237356 L 462.14442,97.212282 C 461.49426,101.98489 464.11554,103.40974 466.61778,104.77362 C 468.53456,105.59784 470.40752,105.78582 473.92353,106.17906 C 478.06254,106.64197 480.23214,106.10039 482.11625,105.11544 C 484.0172,104.14516 485.52082,103.33676 486.06271,100.44647 L 484.66217,81.949903 L 490.87954,82.662258 L 491.81448,101.03251 C 491.35201,103.49923 490.5959,105.32256 489.54612,106.50262 C 488.49404,107.69502 486.78933,108.63645 484.42884,109.32635 C 481.23923,110.25429 477.18034,110.44272 472.25058,109.89138 C 465.96937,109.18888 462.08725,107.52112 459.48132,105.44895 C 456.87538,103.3768 455.92819,99.599341 456.6405,94.677873 L 459.345,79.504762 z M 539.94591,105.58904 L 543.33335,118.82052 C 537.45379,119.14225 527.29779,118.60316 521.8904,117.9984 C 505.98782,115.62767 501.60368,106.26824 500.88281,99.73517 C 501.20505,94.745572 502.00937,90.525143 506.94263,88.195831 C 511.61738,86.149219 513.7192,85.569005 521.64437,85.975918 C 526.761,86.548264 530.70282,87.027798 536.37066,88.513812 L 537.60772,92.572006 C 531.17327,90.529514 527.98779,90.217593 523.53564,89.719856 C 512.57549,89.398737 507.69031,90.714851 506.25148,98.389117 C 505.54141,102.17641 507.98212,106.36511 510.76973,108.71217 C 513.53663,111.05671 517.46276,112.91597 523.26433,113.84537 C 525.65734,114.11291 533.09,114.62406 536.94163,114.58418 L 535.18844,107.73755 L 526.04406,105.91743 L 526.58362,103.03959 L 539.94591,105.58904 z"
     id="path3867"
     style="font-size:40px;font-weight:normal;opacity:0.98999999;fill:#ffffff;stroke-width:1pt;font-family:Luxi Sans" />
  <path
     d="M 354.93969,104.44065 C 411.22315,105.38674 495.42157,116.78049 545.83231,127.65929"
     id="path3865"
     style="fill:none;fill-opacity:1;fill-rule:evenodd;stroke:#ffffff;stroke-width:1.21822681pt;stroke-linecap:butt;stroke-linejoin:miter;stroke-opacity:1" />
  <path
     d="M 390.74705,65.687451 C 445.61159,69.96879 485.09721,74.656107 535.21556,82.677479"
     id="path3866"
     style="fill:none;fill-opacity:1;fill-rule:evenodd;stroke:#ffffff;stroke-width:1.202773pt;stroke-linecap:butt;stroke-linejoin:miter;stroke-opacity:1" />
  <path
     d="M 237.52299,385.84625 C 255.29324,392.71663 266.03575,384.41419 273.65186,379.44832 C 276.77874,376.98682 279.77962,375.54134 283.68109,372.72105 C 288.51296,369.54399 292.1876,369.22149 296.07841,366.64334 C 298.32543,366.04767 299.23199,361.90118 297.66305,356.57339 C 297.79083,354.33153 294.64252,353.65753 292.98184,353.61729 C 287.91117,353.07958 283.60445,355.85628 274.66094,363.05504 C 251.72087,377.37244 235.4925,371.6558 214.52939,360.88922 C 225.46614,371.12456 223.03674,376.80239 237.52299,385.84625 z"
     id="path1226"
     style="fill:url(#radialGradient1233);fill-opacity:1;fill-rule:evenodd;stroke:#000000;stroke-width:0.14969715;stroke-linecap:butt;stroke-linejoin:miter;stroke-dasharray:none;stroke-opacity:1" />
  <path
     d="M 212.62443,359.74374 C 224.52595,364.99512 239.0849,375.36853 262.33346,369.19622 C 270.1273,367.09567 276.10321,360.67785 282.98808,356.24322 C 289.40589,351.4601 294.53991,353.32712 298.04043,354.84325"
     id="path1780"
     style="font-size:12px;fill:none;fill-rule:evenodd;stroke:#000000;stroke-width:1.19757724" />
  <path
     d="M 232.38455,368.81431 C 238.8838,372.445 255.97287,372.91649 263.61724,369.06616 C 263.83544,369.04125 256.92267,383.2329 247.18684,383.79504 C 242.47857,384.09647 231.81199,371.58634 232.38455,368.81431 z"
     id="path1239"
     style="fill:url(#radialGradient1237);fill-opacity:1;fill-rule:evenodd;stroke:none;stroke-width:0.125;stroke-linecap:butt;stroke-linejoin:miter;stroke-dasharray:none;stroke-opacity:1" />
</svg>
